<?xml version="1.0" encoding="utf-8"?>
<!-- Generator: Adobe Illustrator 22.0.0, SVG Export Plug-In . SVG Version: 6.00 Build 0)  -->
<svg version="1.1" xmlns="http://www.w3.org/2000/svg" xmlns:xlink="http://www.w3.org/1999/xlink" x="0px" y="0px"
	 viewBox="0 0 500 664" style="enable-background:new 0 0 500 664;" xml:space="preserve">
<style type="text/css">
	.B_x002F_W_x0020_Water_x0020_25k{fill:#BFBFBF;}
</style>
<g id="Background2">

<g id="st-group">
	<g id="brain" class="st-group">
		<path id="brainCircle" class="st-overlay" d="M436.1,139.2c0,4.9-4,8.9-8.9,8.9c-4.9,0-8.9-4-8.9-8.9c0-4.9,4-8.9,8.9-8.9C432.1,130.3,436.1,134.3,436.1,139.2z
			 M371.4,116.4c-0.1-0.1-0.3,0-0.3,0.1c-0.1,0.2-0.1,0.4-0.1,0.5c0,0.2-0.1,0.4-0.3,0.4c-0.1,0-0.2-0.1-0.3-0.1
			c-0.3-0.2-0.6-0.4-0.8-0.5c-0.5-0.3-1,0-1.5,0.3c-0.5,0.3-0.9,0.6-1.5,0.6c-0.2,0-0.5-0.1-0.7-0.1c-0.1,0-0.3,0.1-0.4,0.2
			c-0.7,0.5-1.5,0.8-2.3,1.1c-0.5,0.2-1.2,0.3-1.4,0.8c-0.3,0.5,0,1.2-0.2,1.7c0,0.1-0.1,0.2-0.2,0.2c-0.1,0-0.2,0-0.4-0.1
			c-0.4-0.3-0.8-0.6-1.2-0.9c-1.2,0.1-2,1.1-2.8,2c-0.3,0.4-0.6,0.7-1,1.1c-0.3,0.3-0.5,0.6-0.8,1c-0.2,0.4-0.4,0.8-0.5,1.3
			c0,0.2,0,0.4-0.1,0.5c-0.3,0.3-0.9,0-1.2,0.3c-0.3,0.2-0.3,0.7-0.5,1c-0.4,0.4-1.1,0.3-1.5,0.7c-0.2,0.2-0.2,0.4-0.4,0.6
			c-0.4,0.4-1.2,0.2-1.7,0.5c-0.4,0.3-0.5,0.8-0.6,1.2c-0.1,0.4-0.4,0.9-0.8,1c-0.3,0-0.7-0.2-0.9-0.1c-0.2,0.1-0.3,0.4-0.5,0.6
			c-0.3,0.5-1,0.7-1.2,1.2c-0.2,0.5,0,1-0.2,1.5c-0.3,0.6-1.2,0.6-1.5,1.1c-0.1,0.2-0.1,0.5-0.2,0.7c-0.2,0.3-0.6,0.2-1,0.3
			c-1,0.1-1.6,1.3-1.3,2.2c-0.6,0-1.2,0-1.7,0.2c-0.5,0.2-1,0.7-1,1.3c0,0.3,0.1,0.6-0.2,0.8c-0.2,0.1-0.5,0.1-0.6,0.2
			c-0.2,0.1-0.2,0.4-0.2,0.6c-0.1,0.7-0.5,1.4-1.2,1.7c-0.2,0.1-0.4,0.2-0.5,0.3c-0.2,0.3,0,0.8-0.3,1.1c-0.2,0.2-0.5,0.3-0.5,0.6
			c0,0.4,0.7,0.5,0.8,0.9c-0.3,0.1-0.5,0.2-0.8,0.3c-0.7,0.4-1.5,0.8-1.7,1.6c-0.1,0.2-0.1,0.4-0.2,0.6c-0.1,0.2-0.3,0.2-0.5,0.4
			c-0.4,0.5,0,1.4-0.5,1.8c-0.1,0.1-0.3,0.1-0.4,0.2c-0.5,0.4-0.3,1.3-0.8,1.7c-0.1,0.1-0.3,0.2-0.5,0.3c-0.7,0.5,0,1.7-0.5,2.4
			c-0.1,0.2-0.4,0.4-0.5,0.6c-0.2,0.2-0.2,0.5-0.3,0.8c-0.1,0.8-0.3,1.5-0.4,2.3c0,0.1,0,0.3,0,0.4c0.1,0.1,0.2,0.1,0.3,0.2
			c0.2,0.2,0,0.5-0.2,0.7c-0.2,0.2-0.5,0.3-0.6,0.5c-0.1,0.2-0.2,0.4-0.2,0.6c-0.2,1-0.4,2-0.3,3.1c0.1,1,0.7,2,1.7,2.4
			c0.3,0.1,0,0.5-0.2,0.8c-0.1,0.2-0.3,0.4-0.4,0.6c-0.1,0.5,0.5,1.1,0.2,1.5c0,0.1-0.1,0.1-0.2,0.2c-0.3,0.4-0.2,0.9,0,1.4
			c0.2,0.5,0.3,1.1,0.5,1.6c0.3,1,1,1.6,1.9,2.2c0.2,0.1,0.4,0.3,0.6,0.4c0.5,0.5,0.3,1.3,0.3,2c0.1,1.8,1.6,3.1,2.9,4.3
			c0.3,0.3,0.6,0.5,1,0.7c0.3,0.1,0.7,0.2,1,0.3c0.7,0.2,1.4,0.8,1.7,1.4c0.7,1.3,0.9,2.6,1.6,3.9c0.3,0.5,0.8,1.1,1.3,1
			c0.3,0,0.5-0.3,0.8-0.3c0.6,0,1,0.8,1.6,1c0.2,0,0.3,0,0.5,0c0.7,0.1,1,1.2,1.8,1.4c0.2,0,0.4,0,0.6,0c0.4,0,0.8,0.1,1.2,0.4
			c0.2,0.2,0.4,0.4,0.6,0.6c0.7,0.4,1.5-0.2,2.3-0.1c0.8,0.1,1.4,0.9,2.1,0.7c0.4-0.1,0.7,0,0.8,0.4c0.1,0.2,0.1,0.3,0.2,0.4
			c0.1,0.1,0.3,0.1,0.4,0.1c0.8,0,1.6-0.2,2.4-0.4c0.4-0.1,1-0.3,1.3,0c0.1,0.1,0.2,0.2,0.3,0.2c0.3,0.1,0.5-0.2,0.8-0.2
			c0.2,0,0.4,0.2,0.5,0.4c0.3,0.3,0.8,0.3,1.2,0.3c1.1,0,2.2,0.1,3.2-0.3c0.5-0.2,0.9-0.5,1.4-0.6c0.5-0.1,0.9,0,1.4,0
			c0.7,0,1.4-0.3,1.9-0.7c0.5-0.4,0.9-1,1.5-1.2c0.3-0.1,0.7-0.1,1-0.1c0.6,0,1.2-0.3,1.6-0.6c0.8-0.6,1.3-1.2,2-2
			c0.4-0.4,0.8-0.8,1.3-0.7c0.3,0,0.5,0.1,0.8,0.1c0.2,0,0.3-0.1,0.4-0.2c1-0.8,2.1-1.5,3.1-2.3c0.3-0.2,0.6-0.5,0.7-0.9
			c0-0.2,0-0.5,0.1-0.7c0.3-0.5,1.2,0,1.6-0.4c0.1-0.1,0.2-0.3,0.2-0.4c0.2-0.5,0.7-0.8,1.1-1.1c0.6-0.6,1-1.3,1.4-2
			c0.3-0.5,0.6-1.1,0.7-1.7c0.1-0.6-0.1-1.3-0.6-1.6c-0.2-0.1-0.3-0.2-0.5-0.3c-0.4-0.4-0.2-1.1-0.5-1.6c-0.2-0.2-0.4-0.4-0.7-0.5
			c-0.2-0.2-0.4-0.4-0.4-0.7c0.1-0.3,0.3-0.4,0.6-0.6c0.7-0.4,1.2-1.1,1.4-1.9c0.3-1.1,1.3-1.9,1.5-3.1c0-0.4,0-0.8,0.2-1.1
			c0.2-0.3,0.5-0.4,0.7-0.6c0.2-0.2,0.3-0.6,0.4-0.9c0.4-1.8,0.9-3.7,0.3-5.5c0.2,0.4,0.4,0.8,0.8,1.1c0.3,0.3,0.8,0.6,0.7,1
			c0,0.2-0.2,0.3-0.2,0.4c-0.6,0.8,0.2,2.1-0.4,2.9c-0.1,0.2-0.3,0.3-0.5,0.4c-0.6,0.6-0.7,1.5-0.6,2.3c0,0.3,0.1,0.6-0.1,0.9
			c-0.1,0.2-0.3,0.4-0.4,0.7c-0.2,0.4-0.2,1,0.1,1.4c0.1,0.2,0.3,0.3,0.4,0.4c1,0.9,1.8,1.7,3.2,1.7c0.2,0,0.4,0,0.6,0.1
			c0.4,0.1,0.7,0.4,1.1,0.3c0.5-0.1,0.8-0.8,1.4-0.9c0.3-0.1,0.6,0.1,0.8,0.1s0.6,0.1,0.8-0.1c0.9-0.9,2-1.4,3.2-1.4
			c0.5,0,1,0.1,1.5-0.1c0.3-0.1,0.6-0.4,0.8-0.6c0.7-0.8,1.3-1.7,1.7-2.7c0.1-0.3,0.2-0.6,0.5-0.7c0.5-0.4,1.3,0.2,1.9-0.1
			c0.6-0.3,0.6-1.2,1.2-1.5c0.2-0.1,0.4-0.1,0.6-0.2c0.2-0.1,0.3-0.3,0.4-0.4c1-1.5,1.7-3.8,1.6-5.5c0-0.1,0-0.2,0-0.2
			c0-0.1,0.1-0.1,0.2-0.2c0.2-0.1,0.4-0.3,0.5-0.5c0.8-1.8,1.8-3.6,1.1-5.5c-0.1-0.2-0.2-0.4-0.2-0.6c0-0.5,0.5-0.9,0.4-1.4
			c0-0.4-0.3-0.7-0.4-1.1c0-0.3,0.1-0.5,0.1-0.8c0.2-0.9,0.2-1.8,0-2.7c-0.1-0.4-0.3-0.8-0.2-1.1c0-0.2,0.1-0.4,0.2-0.6
			c0.1-0.4-0.1-0.7-0.1-1.1c-0.1-0.6,0.1-1.1,0.1-1.7c0-0.6-0.1-1.2-0.6-1.5c-0.1-0.5-0.1-1.2-0.1-1.7c0-1,0.6-2,0.1-2.9
			c-0.1-0.2-0.2-0.4-0.3-0.5c-0.5-1,0.3-2.4-0.2-3.4c-0.8-0.3-1-1.5-1.2-2.3c-0.4-1.3-1.4-2.4-2.1-3.6c-0.6-1-1-2-1.6-3
			s-1.3-1.9-2.4-2.4c-0.4-0.2-0.7-0.3-1.1-0.4c-0.7-0.4-1.4-1.1-2.2-0.8c-0.6-0.1-1.2-0.7-1.8-0.8c-0.3-0.1-0.6,0-1-0.1
			c-0.8-0.1-1.5-0.8-2.2-1.3c-1-0.6-2.2-0.8-3.4-1c-0.9-0.1-1.8-0.3-2.7-0.4c-0.3,0-0.6-0.1-0.9-0.3c-0.1-0.1-0.3-0.2-0.4-0.3
			c-0.4-0.3-1-0.4-1.5-0.2c-0.1,0.1-0.3,0.1-0.4,0.1c-0.2,0-0.4-0.1-0.6-0.2c-0.7-0.3-1.6-0.5-2.4-0.6c-0.1,0-0.2,0-0.3,0
			c-0.1,0.1-0.1,0.2-0.2,0.3c-0.1,0.3-0.3,0.5-0.6,0.6c-0.1,0-0.3,0-0.4-0.1c-1.2-0.4-2.5-0.4-3.8-0.5c-0.1,0-0.3,0-0.4,0
			c-0.4,0.1-0.6,0.7-1,0.8c-0.2,0-0.5-0.2-0.7-0.3c-0.3-0.3-0.9-0.5-1.2-0.1c0,0.1-0.1,0.2-0.1,0.3c-0.1,0.1-0.4,0.1-0.5,0
			c-0.2-0.1-0.3-0.3-0.5-0.3c-0.3-0.1-0.7,0.1-1,0.2S371.6,116.7,371.4,116.4z"/>
	</g>

	<g id="fat" class="st-group">
		<path id="fatCircle" class="st-overlay" d="M397.7,260.2c0,4.9-4,8.9-8.9,8.9c-4.9,0-8.9-4-8.9-8.9c0-4.9,4-8.9,8.9-8.9C393.7,251.3,397.7,255.3,397.7,260.2z
			 M359.9,279.4c-5.3-1.5-16-2.1-21.5,0.5c-5,2.4-8.3,6.4-13.4,12.1c-4.7,5.2-10.4,9.2-12.2,10.7c-1.9,1.6-10.5,7.4-8.8,9.5
			c1.3,1.7,4.9,1.5,7.4,1.5s10.3,0.2,15.8-1.4c6.5-1.9,16.7-7.1,22.6-10.5c7.3-4.2,16.4-10.8,18.2-12.2c1.8-1.4,6.2-4.5,4.7-6.1
			c-1-1.1-3.3-1.6-4.8-1.7c-1.5-0.1-2.6-0.3-4.1-1C362.8,280.4,361.3,279.8,359.9,279.4z"/>
	</g>

	<g id="fish" class="st-group">
		<path id="fishCircle" class="st-overlay" d="M115,293.9c-3.7-0.3-15.3-1.3-17.5-3c-2.2-1.7-4.3-6.2-5.2-7.8c-0.8-1.7-0.2-6-4.8-2.8s-7.5,8.2-13.7,9.7
		s-21,5.2-31.7,12.7c-3.6,2.5-10.2,6.8-13.3,11.9c-1.1,1.9-3.8,7.1-2,7.7c1.1,0.4,4.9,1,4.6,1.4c-0.2,0.3-2,0.4-3,0.6
		c-0.3,0.1-0.4-0.1-0.1,1.2c0.3,1.7,1.7,3,4.3,4.7c3.2,2.1,9.6,4.4,17,3.8c9.4-0.7,12.9-2.2,17.8-4c4.9-1.8,10.9-4.3,12.1-4.2
		c1.2,0.1,11.2,1,6.9-1c-4.3-2-2.1-1.4,0.4-1.9s6.3-1.9,8.3-0.8s11.2,8.4,9.9,5.7s-4.1-5.5-5.1-6.7s-3.2-1.9-0.1-2.1
		c3.1-0.2,8-1.8,8.2-1.3c0.2,0.4,1.6,2.4,3.6,4.2s3.4,3.9,4.4,2.2c0.2-0.4-0.1-1.8,1.2-3.5s3.2-5,3.8-6.2c0.6-1.2,1.5-1.5,2.4-2.4
		c0.5-0.5,0.5-1.6,1.4-1.6c0.9,0,3.8,0.1,5.2,1.6c1.3,1.6,9.2,8.1,12.3,9.9c3.1,1.8,5.6,3.5,4.5,0.5c-1.1-3-0.9-3-0.9-4.3
		c0-1.3-0.4-2.4-0.5-3c-0.1-0.6,0.6-0.7,0.5-1.8c-0.1-1.1-0.3-3.4-0.7-4.5c-0.3-1.1-0.8-1.5,0.2-2c1-0.5,1.3-0.2,1.2-1.4
		c-0.1-1.2,0.4-2.3,0.8-2.8c0.4-0.5,0.2-0.2,0.8-1.4c0.6-1.2,1.4-2.4,1.7-3s0.9-2.2,1.5-2.7c0.6-0.5,0.9-0.9,1.4-1
		c0.5-0.1,1.1-0.9,0-1.2s-5.9,0.4-7.3,0.4c-1.4,0-13.2,4.9-16.4,5c-3.2,0.1-4.9-0.2-5.1-1.4c-0.2-1.2,0.3-2.1-0.9-2.9
		s-2.4-1.1-5.1-0.8C117.4,293.5,117.6,294.1,115,293.9z"/>
	</g>

	<g id="melon" class="st-group">
	 <path id="melonCircle" class="st-overlay" d="M304.2,135.3c-0.3,6.7-1.7,14.3-4.4,21.5c-6.8,17.9-17.6,28.4-18.6,29.6c-5,5.9-15.8,14.4-24.2,19.4
		c-7.8,4.6-23.4,8.1-25.8,8.6s-9.9,2.3-11.8,2.5s-3.4,0.6-4.4,0.9s-2,0.7-4.1,0.7s-1.8-1.2-2.2-1.8c-0.5-0.9,0-4.9,0-6.2
		s-0.5-11.1-0.3-13.6c3.4-44.7,62.6-76,62.6-76c0,0,0,0,0,0c2.5-1.2,5.9-2.9,8.9-4.1c1.1-0.4,2.2-0.8,3.2-1.1c2.8-0.7,5.8-1,8.2-1.2
		c0,0,0.2-0.1,0.4-0.3c1.4-0.1,2.8,0,3.9,0.2c0,0,0,0,0,0c0.2,0,0.4,0,0.7,0.1c1.3,0.2,2.4,0.6,3.3,1.1c0.4,0.2,0.7,0.5,1,0.8
		c1.2,1.4,2.2,3.9,2.7,7.3C304.1,127.6,304.1,132.3,304.2,135.3z M185.1,173.8c-4.9,0-8.9,4-8.9,8.9c0,4.9,4,8.9,8.9,8.9
		c4.9,0,8.9-4,8.9-8.9C194,177.8,190,173.8,185.1,173.8z"/>
	</g>

	<g id="phonic" class="st-group">
		<path id="phonicCircle" class="st-overlay" d="M306.3,80.2c0,0,0.5-0.6,1.1-1.2c0.5-0.6,0.8-1.6,1.2-1.8c0.2-0.2,0.6-0.2,1-0.1c0.6,0.2,1.4,0.8,1.8,1.6
			c0.2,0.4,0.2,0.8,0.2,1.3c0,1.1-0.1,1.7-0.6,2.1c-0.3,0.3-0.8,0.5-1.5,0.4C308.4,82.2,306.5,80.7,306.3,80.2z M302.9,77.6
			c0,0-2.6-0.8-3.1,1.9c-0.4,2.2,0.7,3.8,1,4.4c0.3,0.5,1.2,1.5,1.8,1.6c1,0.1,1.4-0.5,1.6-1c0.2-0.5,0.2-1.3-0.3-1.6
			c-0.4-0.3-1.4-1-1.4-1.8s0.7-1.2,0.8-2.1S303.4,77.9,302.9,77.6z M320,50.8c-4.9,0-8.9,4-8.9,8.9c0,4.9,4,8.9,8.9,8.9
			c4.9,0,8.9-4,8.9-8.9C328.9,54.8,324.9,50.8,320,50.8z"/>
	</g>
	
	<g id="blowhole" class="st-group">
		<path id="blowholeCircle" class="st-overlay" d="M307.2,33.6c0,4.9-4,8.9-8.9,8.9c-4.9,0-8.9-4-8.9-8.9c0-4.9,4-8.9,8.9-8.9C303.2,24.7,307.2,28.7,307.2,33.6z
			 M336.7,105.6c0,0.9-0.9,2.9-1.4,3.3c-0.7,0.5-0.3,2.2-0.4,2.6s-0.9,1.4-1,2s-0.8,1.4-1.1,1.8s-0.2,1.7-0.2,2.2s-0.9,1.5-1.4,1.8
			s-0.9,1.1-1.2,1.6s-1.5,1.1-2.9,1.9s-4.5,2.1-5.9,3c-1,0.7-2,1.8-2,1.8s-0.1,14.1,0,14.9s-0.5,17.7-1.3,18.3
			c-1.5,1.1-7.2,1.6-9.4,0c-1.2-0.9,0.3-17.5,0.3-17.5s-0.1-6.4-0.1-7.6c-0.1-0.8-3.7,2.4-4.2,2.8s0.2-10.8-1.3-17.5
			c-1.4-6.4-5.8-6.4-7.4-6.6c-0.3,0,6.3-7.8,5.2-7.9c-0.5,0-9.1,7.9-9.5,7.9c-2.8,0.2-6.5,0.6-9.8,1.7c-5.6,1.9-13.9,6.8-13.9,6
			c0-17.5,14.9-29.7,15.8-30.3s1.5-0.2,0.5-2.4c-1.9-4.5-0.1-8.5,0.7-9.7s0.2-0.3-1.9,0c-2.4,0.3-6-1.2-6.5-4
			c-0.9-5.2,6.6-9,11.7-9.2c4.2-0.2,9,0.7,8.6-0.5c-1.1-3.8-1.6-7.3-1.6-7.3c0.2-2,4.4-2.1,4.4-2.1c1.7,0,1.8,1.8,2,2.5
			s1.4,6.5,2,6.7c2.5,0.5,3.9,1.4,5.1,4.5c0.6,1.7,1.7,3.2,2.4,3.6s14.8-1.7,18.9-0.6c7.5,2,12.5,9,12.8,14.9
			c0.3,5.5-5.7,12.6-7.1,13.6s-0.8,1.1,0.1,1.4S336.7,104.7,336.7,105.6z M304.1,82.8c-0.4-0.3-1.4-1-1.4-1.8
			c0.1-0.7,0.7-1.2,0.8-2.1c0.1-0.9-0.1-1.1-0.6-1.4c0,0-2.6-0.8-3.1,1.9c-0.4,2.2,0.7,3.8,1,4.4c0.3,0.5,1.2,1.5,1.8,1.6
			c1,0.1,1.4-0.5,1.6-1S304.5,83.1,304.1,82.8z M311.6,80c0-0.6,0-0.9-0.2-1.3c-0.4-0.8-1.2-1.4-1.8-1.6c-0.3-0.1-0.7-0.1-1,0.1
			c-0.3,0.2-0.6,1.2-1.2,1.8c-0.6,0.7-1.1,1.2-1.1,1.2c0.2,0.5,2,2.1,3.2,2.3c0.7,0.1,1.2-0.1,1.5-0.4
			C311.4,81.7,311.6,81.1,311.6,80z"/>
	</g>
</g>
</svg>
